<?xml version="1.0" encoding="iso-8859-1"?>
<!-- Generator: Adobe Illustrator 16.0.0, SVG Export Plug-In . SVG Version: 6.00 Build 0)  -->
<!DOCTYPE svg PUBLIC "-//W3C//DTD SVG 1.1//EN" "http://www.w3.org/Graphics/SVG/1.1/DTD/svg11.dtd">
<svg version="1.1" id="Capa_1" xmlns="http://www.w3.org/2000/svg" xmlns:xlink="http://www.w3.org/1999/xlink" x="0px" y="0px"
	 width="2.5rem" height="2.5rem" viewBox="0 0 171.146 171.146" style="enable-background:new 0 0 171.146 171.146; filter: invert(100%);"
	 xml:space="preserve">
<g>
	<path d="M169.619,44.915c-1.407-1.129-3.396-1.184-4.867-0.137l-45.679,32.358L89.226,14.561c-1.336-2.813-5.967-2.813-7.309,0
		l-30.193,63.31L6.441,44.817c-1.469-1.07-3.473-1.039-4.899,0.09c-1.427,1.131-1.928,3.063-1.231,4.749l31.105,74.587
		c-0.098,0.475-0.24,0.934-0.24,1.435c0,0.675,0.148,1.308,0.319,1.936v19.501c0,1.481,0.817,2.853,2.128,3.564
		c5.75,3.096,24.938,8.016,51.943,8.016c27.442,0,46.011-4.118,52.238-8.2c1.14-0.754,1.835-2.024,1.835-3.386v-19.49
		c0.175-0.633,0.327-1.271,0.327-1.951c0-0.501-0.143-0.96-0.242-1.435l31.107-74.593C171.528,47.966,171.038,46.043,169.619,44.915
		z M39.605,126.337v-0.944c2.447-2.821,15.412-7.093,36.785-8.084c2.916-0.126,5.967-0.216,9.191-0.216
		c2.181,0,4.267,0.047,6.307,0.11c5.643,0.18,10.742,0.569,15.272,1.129c0.991,0.11,1.945,0.242,2.885,0.363
		c12.255,1.729,19.706,4.478,21.505,6.297v0.954c-0.237,0.274-0.56,0.56-0.997,0.85c-4.635,3.201-20.424,7.451-44.977,7.451
		c-25.444,0-41.444-4.572-45.415-7.451C39.946,126.638,39.753,126.484,39.605,126.337z M73.572,109.378
		c-10.481,0.648-21.993,2.198-30.375,5.188l11.638-24.411l22.589,16.485L73.572,109.378z M94.689,109.22l-3.389-2.474l24.614-17.435
		l12.039,25.26C118.789,111.308,105.9,109.757,94.689,109.22z M85.577,25.707l26.794,56.18l-27.97,19.817L58.387,82.72
		L85.577,25.707z M48.183,85.302L35.26,112.389l-21.893-52.5L48.183,85.302z M131.551,144.673
		c-6.102,2.668-21.621,5.922-45.974,5.922c-22.976,0-39.49-3.713-45.971-6.128v-9.165c11.433,5.363,32.028,7.045,45.971,7.045
		s34.536-1.682,45.974-7.045V144.673z M135.886,112.389l-13.273-27.828l35.316-25.017L135.886,112.389z"/>
</g>
<g>
</g>
<g>
</g>
<g>
</g>
<g>
</g>
<g>
</g>
<g>
</g>
<g>
</g>
<g>
</g>
<g>
</g>
<g>
</g>
<g>
</g>
<g>
</g>
<g>
</g>
<g>
</g>
<g>
</g>
</svg>
